<svg width="444" height="155" viewBox="0 0 444 155" fill="none" xmlns="http://www.w3.org/2000/svg">
<path fill-rule="evenodd" clip-rule="evenodd" d="M77.5 155C120.302 155 155 120.302 155 77.5C155 34.6979 120.302 0 77.5 0C34.6979 0 0 34.6979 0 77.5C0 120.302 34.6979 155 77.5 155ZM77.5 127C104.838 127 127 104.838 127 77.5C127 50.1619 104.838 28 77.5 28C50.1619 28 28 50.1619 28 77.5C28 104.838 50.1619 127 77.5 127Z" fill="white"/>
<path d="M198.984 52.456C202.76 52.456 206.2 53.048 209.304 54.232C212.408 55.416 215.064 57.112 217.272 59.32C219.512 61.528 221.24 64.216 222.456 67.384C223.704 70.52 224.328 74.056 224.328 77.992C224.328 81.96 223.704 85.544 222.456 88.744C221.24 91.912 219.512 94.616 217.272 96.856C215.064 99.064 212.408 100.776 209.304 101.992C206.2 103.176 202.76 103.768 198.984 103.768C195.176 103.768 191.704 103.176 188.568 101.992C185.464 100.776 182.776 99.064 180.504 96.856C178.264 94.616 176.52 91.912 175.272 88.744C174.056 85.544 173.448 81.96 173.448 77.992C173.448 74.056 174.056 70.52 175.272 67.384C176.52 64.216 178.264 61.528 180.504 59.32C182.776 57.112 185.464 55.416 188.568 54.232C191.704 53.048 195.176 52.456 198.984 52.456ZM198.984 92.728C202.408 92.728 204.92 91.528 206.52 89.128C208.152 86.696 208.968 83.016 208.968 78.088C208.968 73.16 208.152 69.496 206.52 67.096C204.92 64.696 202.408 63.496 198.984 63.496C195.464 63.496 192.888 64.696 191.256 67.096C189.624 69.496 188.808 73.16 188.808 78.088C188.808 83.016 189.624 86.696 191.256 89.128C192.888 91.528 195.464 92.728 198.984 92.728ZM245.741 60.904C247.277 58.216 249.037 56.104 251.021 54.568C253.037 53.032 255.341 52.264 257.933 52.264C260.173 52.264 261.997 52.792 263.405 53.848L262.445 64.792C262.285 65.496 262.013 65.976 261.629 66.232C261.277 66.488 260.781 66.616 260.141 66.616C259.885 66.616 259.549 66.6 259.133 66.568C258.717 66.536 258.285 66.504 257.837 66.472C257.389 66.408 256.925 66.36 256.445 66.328C255.997 66.264 255.581 66.232 255.197 66.232C253.021 66.232 251.277 66.808 249.965 67.96C248.685 69.112 247.597 70.712 246.701 72.76V103H231.821V53.224H240.653C241.389 53.224 241.997 53.288 242.477 53.416C242.989 53.544 243.405 53.752 243.725 54.04C244.077 54.296 244.333 54.648 244.493 55.096C244.685 55.544 244.845 56.088 244.973 56.728L245.741 60.904ZM283.694 53.224V103H268.814V53.224H283.694ZM285.23 39.592C285.23 40.776 284.99 41.896 284.51 42.952C284.03 43.976 283.374 44.888 282.542 45.688C281.71 46.456 280.734 47.08 279.614 47.56C278.526 48.008 277.358 48.232 276.109 48.232C274.894 48.232 273.758 48.008 272.702 47.56C271.646 47.08 270.702 46.456 269.87 45.688C269.07 44.888 268.43 43.976 267.95 42.952C267.502 41.896 267.278 40.776 267.278 39.592C267.278 38.376 267.502 37.24 267.95 36.184C268.43 35.128 269.07 34.2 269.87 33.4C270.702 32.6 271.646 31.976 272.702 31.528C273.758 31.08 274.894 30.856 276.109 30.856C277.358 30.856 278.526 31.08 279.614 31.528C280.734 31.976 281.71 32.6 282.542 33.4C283.374 34.2 284.03 35.128 284.51 36.184C284.99 37.24 285.23 38.376 285.23 39.592ZM313.031 75.496C315.495 75.496 317.271 74.888 318.359 73.672C319.479 72.424 320.039 70.824 320.039 68.872C320.039 66.856 319.479 65.272 318.359 64.12C317.271 62.968 315.495 62.392 313.031 62.392C310.567 62.392 308.775 62.968 307.655 64.12C306.567 65.272 306.023 66.856 306.023 68.872C306.023 69.832 306.151 70.712 306.407 71.512C306.695 72.312 307.127 73.016 307.703 73.624C308.279 74.2 308.999 74.664 309.863 75.016C310.759 75.336 311.815 75.496 313.031 75.496ZM324.551 104.824C324.551 103.64 324.023 102.792 322.967 102.28C321.911 101.736 320.535 101.352 318.839 101.128C317.143 100.904 315.239 100.776 313.127 100.744C311.047 100.68 308.967 100.552 306.887 100.36C305.959 101 305.191 101.72 304.583 102.52C304.007 103.288 303.719 104.168 303.719 105.16C303.719 105.864 303.863 106.504 304.151 107.08C304.471 107.656 305.015 108.152 305.783 108.568C306.551 108.984 307.575 109.304 308.855 109.528C310.167 109.784 311.815 109.912 313.799 109.912C315.943 109.912 317.703 109.784 319.079 109.528C320.455 109.272 321.543 108.92 322.343 108.472C323.175 108.024 323.751 107.48 324.071 106.84C324.391 106.232 324.551 105.56 324.551 104.824ZM339.239 54.76V60.184C339.239 61.016 338.999 61.672 338.519 62.152C338.071 62.632 337.287 63 336.167 63.256L332.567 64.072C332.759 64.776 332.903 65.496 332.999 66.232C333.127 66.968 333.191 67.736 333.191 68.536C333.191 71.032 332.663 73.272 331.607 75.256C330.583 77.24 329.159 78.936 327.335 80.344C325.543 81.72 323.415 82.792 320.951 83.56C318.487 84.296 315.847 84.664 313.031 84.664C312.263 84.664 311.511 84.648 310.775 84.616C310.039 84.552 309.319 84.456 308.615 84.328C307.527 85 306.983 85.752 306.983 86.584C306.983 87.416 307.431 88.024 308.327 88.408C309.223 88.76 310.407 89.016 311.879 89.176C313.351 89.304 315.015 89.4 316.871 89.464C318.759 89.496 320.679 89.608 322.631 89.8C324.583 89.96 326.487 90.248 328.343 90.664C330.231 91.08 331.911 91.752 333.383 92.68C334.855 93.608 336.039 94.856 336.935 96.424C337.831 97.96 338.279 99.928 338.279 102.328C338.279 104.568 337.735 106.76 336.647 108.904C335.559 111.048 333.959 112.952 331.847 114.616C329.735 116.28 327.143 117.608 324.071 118.6C320.999 119.624 317.479 120.136 313.511 120.136C309.607 120.136 306.231 119.768 303.383 119.032C300.567 118.296 298.215 117.32 296.327 116.104C294.471 114.92 293.095 113.544 292.199 111.976C291.303 110.408 290.855 108.776 290.855 107.08C290.855 104.872 291.495 103.032 292.775 101.56C294.055 100.088 295.847 98.904 298.151 98.008C296.935 97.272 295.975 96.328 295.271 95.176C294.567 94.024 294.215 92.536 294.215 90.712C294.215 89.976 294.343 89.208 294.599 88.408C294.855 87.576 295.255 86.776 295.799 86.008C296.375 85.208 297.079 84.456 297.911 83.752C298.743 83.048 299.735 82.424 300.887 81.88C298.295 80.504 296.247 78.696 294.743 76.456C293.239 74.184 292.487 71.544 292.487 68.536C292.487 66.04 293.015 63.8 294.071 61.816C295.127 59.8 296.567 58.104 298.391 56.728C300.247 55.32 302.423 54.248 304.919 53.512C307.415 52.744 310.119 52.36 313.031 52.36C317.255 52.36 320.999 53.16 324.263 54.76H339.239ZM360.662 53.224V103H345.782V53.224H360.662ZM362.198 39.592C362.198 40.776 361.958 41.896 361.478 42.952C360.998 43.976 360.342 44.888 359.51 45.688C358.678 46.456 357.702 47.08 356.582 47.56C355.494 48.008 354.326 48.232 353.078 48.232C351.862 48.232 350.726 48.008 349.67 47.56C348.614 47.08 347.67 46.456 346.838 45.688C346.038 44.888 345.398 43.976 344.918 42.952C344.47 41.896 344.246 40.776 344.246 39.592C344.246 38.376 344.47 37.24 344.918 36.184C345.398 35.128 346.038 34.2 346.838 33.4C347.67 32.6 348.614 31.976 349.67 31.528C350.726 31.08 351.862 30.856 353.078 30.856C354.326 30.856 355.494 31.08 356.582 31.528C357.702 31.976 358.678 32.6 359.51 33.4C360.342 34.2 360.998 35.128 361.478 36.184C361.958 37.24 362.198 38.376 362.198 39.592ZM384.768 58.6C385.728 57.704 386.72 56.872 387.744 56.104C388.768 55.336 389.856 54.696 391.008 54.184C392.192 53.64 393.456 53.224 394.8 52.936C396.176 52.616 397.664 52.456 399.264 52.456C401.984 52.456 404.384 52.936 406.464 53.896C408.576 54.824 410.352 56.136 411.792 57.832C413.232 59.496 414.32 61.496 415.056 63.832C415.792 66.136 416.16 68.648 416.16 71.368V103H401.28V71.368C401.28 68.936 400.72 67.048 399.6 65.704C398.48 64.328 396.832 63.64 394.656 63.64C393.024 63.64 391.488 63.992 390.048 64.696C388.64 65.368 387.264 66.296 385.92 67.48V103H371.04V53.224H380.256C382.112 53.224 383.328 54.056 383.904 55.72L384.768 58.6ZM423.774 95.464C423.774 94.312 423.982 93.24 424.398 92.248C424.846 91.256 425.438 90.392 426.174 89.656C426.942 88.92 427.838 88.344 428.862 87.928C429.886 87.48 431.006 87.256 432.222 87.256C433.406 87.256 434.51 87.48 435.534 87.928C436.558 88.344 437.454 88.92 438.222 89.656C438.99 90.392 439.582 91.256 439.998 92.248C440.446 93.24 440.67 94.312 440.67 95.464C440.67 96.616 440.446 97.704 439.998 98.728C439.582 99.72 438.99 100.584 438.222 101.32C437.454 102.056 436.558 102.632 435.534 103.048C434.51 103.464 433.406 103.672 432.222 103.672C431.006 103.672 429.886 103.464 428.862 103.048C427.838 102.632 426.942 102.056 426.174 101.32C425.438 100.584 424.846 99.72 424.398 98.728C423.982 97.704 423.774 96.616 423.774 95.464Z" fill="white"/>
</svg>
