<svg width="106" height="50" viewBox="0 0 106 50" fill="none" xmlns="http://www.w3.org/2000/svg">
<path d="M57.1591 33.096C55.9751 33.096 54.9031 32.824 53.9431 32.28C52.9991 31.736 52.2551 30.984 51.7111 30.024C51.1671 29.048 50.8951 27.952 50.8951 26.736C50.8951 25.52 51.1671 24.432 51.7111 23.472C52.2551 22.496 52.9991 21.736 53.9431 21.192C54.9031 20.648 55.9751 20.376 57.1591 20.376C58.3431 20.376 59.4071 20.648 60.3511 21.192C61.3111 21.736 62.0631 22.496 62.6071 23.472C63.1511 24.432 63.4231 25.52 63.4231 26.736C63.4231 27.952 63.1511 29.048 62.6071 30.024C62.0631 30.984 61.3111 31.736 60.3511 32.28C59.4071 32.824 58.3431 33.096 57.1591 33.096ZM57.1591 32.016C58.1191 32.016 58.9751 31.792 59.7271 31.344C60.4951 30.896 61.0951 30.272 61.5271 29.472C61.9751 28.672 62.1991 27.76 62.1991 26.736C62.1991 25.712 61.9751 24.8 61.5271 24C61.0951 23.2 60.4951 22.576 59.7271 22.128C58.9751 21.68 58.1191 21.456 57.1591 21.456C56.1991 21.456 55.3351 21.68 54.5671 22.128C53.8151 22.576 53.2151 23.2 52.7671 24C52.3351 24.8 52.1191 25.712 52.1191 26.736C52.1191 27.76 52.3351 28.672 52.7671 29.472C53.2151 30.272 53.8151 30.896 54.5671 31.344C55.3351 31.792 56.1991 32.016 57.1591 32.016ZM82.7459 20.376C84.2979 20.376 85.5139 20.832 86.3939 21.744C87.2899 22.656 87.7379 23.968 87.7379 25.68V33H86.5379V25.776C86.5379 24.368 86.1939 23.296 85.5059 22.56C84.8179 21.824 83.8579 21.456 82.6259 21.456C81.2179 21.456 80.0979 21.896 79.2659 22.776C78.4499 23.656 78.0419 24.84 78.0419 26.328V33H76.8419V25.776C76.8419 24.368 76.4979 23.296 75.8099 22.56C75.1219 21.824 74.1619 21.456 72.9299 21.456C71.5219 21.456 70.4019 21.896 69.5699 22.776C68.7539 23.656 68.3459 24.84 68.3459 26.328V33H67.1459V20.472H68.2979V23.16C68.7139 22.28 69.3299 21.6 70.1459 21.12C70.9779 20.624 71.9619 20.376 73.0979 20.376C74.2339 20.376 75.1939 20.632 75.9779 21.144C76.7779 21.656 77.3459 22.408 77.6819 23.4C78.0979 22.472 78.7459 21.736 79.6259 21.192C80.5219 20.648 81.5619 20.376 82.7459 20.376ZM103.3 27.024H92.5242C92.5562 28 92.8042 28.872 93.2682 29.64C93.7322 30.392 94.3562 30.976 95.1402 31.392C95.9402 31.808 96.8362 32.016 97.8282 32.016C98.6442 32.016 99.3962 31.872 100.084 31.584C100.788 31.28 101.372 30.84 101.836 30.264L102.532 31.056C101.988 31.712 101.3 32.216 100.468 32.568C99.6522 32.92 98.7642 33.096 97.8042 33.096C96.5562 33.096 95.4442 32.824 94.4682 32.28C93.4922 31.736 92.7242 30.984 92.1642 30.024C91.6202 29.064 91.3482 27.968 91.3482 26.736C91.3482 25.52 91.6042 24.432 92.1162 23.472C92.6442 22.496 93.3642 21.736 94.2762 21.192C95.1882 20.648 96.2122 20.376 97.3482 20.376C98.4842 20.376 99.5002 20.648 100.396 21.192C101.308 21.72 102.02 22.464 102.532 23.424C103.06 24.384 103.324 25.472 103.324 26.688L103.3 27.024ZM97.3482 21.432C96.4682 21.432 95.6762 21.632 94.9722 22.032C94.2682 22.416 93.7002 22.968 93.2682 23.688C92.8522 24.392 92.6122 25.192 92.5482 26.088H102.148C102.1 25.192 101.86 24.392 101.428 23.688C100.996 22.984 100.428 22.432 99.7242 22.032C99.0202 21.632 98.2282 21.432 97.3482 21.432Z" fill="white"/>
<mask id="mask0" mask-type="alpha" maskUnits="userSpaceOnUse" x="0" y="0" width="50" height="50">
<circle cx="25" cy="25" r="18.3013" transform="rotate(150 25 25)" fill="white"/>
</mask>
<g mask="url(#mask0)">
<rect x="-1.49722" y="31.4425" width="49.4097" height="13.4754" fill="white"/>
<rect x="-1.49722" y="19.4644" width="49.4097" height="11.9781" fill="#FFE3D1"/>
<rect x="-1.49722" y="5.98904" width="49.4097" height="13.4754" fill="#FFD0B2"/>
</g>
</svg>
