<svg width="201" height="318" viewBox="0 0 201 318" fill="none" xmlns="http://www.w3.org/2000/svg">
<rect x="-2.33334" width="135" height="135" fill="#FF356B"/>
<rect x="-2.33334" width="67.6667" height="67.6667" fill="#FFAC30"/>
<rect x="-2.33334" y="67.6667" width="67.6667" height="67.6667" fill="#FFAC30"/>
<rect x="65.1667" y="67.5" width="67.5" height="67.5" fill="#3A4276"/>
<path d="M66.5 120C95.3223 120 118 96.1102 118 67.5C118 38.8898 95.3223 15 66.5 15C37.6778 15 15 38.8898 15 67.5C15 96.1102 37.6778 120 66.5 120Z" fill="#58D8F4" stroke="white" stroke-width="30"/>
<rect x="3.05176e-05" y="270" width="133" height="136" fill="#FF356B"/>
<circle cx="66.3" cy="338.3" r="51.3" fill="#58D8F4" stroke="white" stroke-width="30"/>
<path d="M65 270H133V407H65V270Z" fill="#3A4276"/>
<rect x="-2.33334" y="135" width="135" height="135.833" fill="white"/>
<path d="M-2.33334 135H65.3333V202.667L31.5 168.833L-2.33334 135Z" fill="#FFAC30"/>
<path d="M65.3333 202.5L-2.33335 202.5L-2.33335 134.833L31.5 168.667L65.3333 202.5Z" fill="white"/>
<path d="M-2.33334 202.5H65.3333L30.1467 237.687L-2.33334 270.167V202.5Z" fill="#FF356B"/>
<path d="M65.3333 270.667H-2.33335L31.5 236.833L65.3333 203L65.3333 270.667Z" fill="white"/>
<path d="M98.9167 169.167L132.667 135V203.333H65.1667L98.9167 169.167Z" fill="#58D8F4"/>
<path d="M132.667 270.833H65.1666L65.1666 202.5L98.9166 236.667L132.667 270.833Z" fill="#3A4276"/>
</svg>
